{
    "asset" : {
        "generator" : "Khronos glTF Blender I/O v3.4.50",
        "version" : "2.0"
    },
    "scene" : 0,
    "scenes" : [
        {
            "name" : "Scene",
            "nodes" : [
                8,
                9,
                18,
                19,
                29,
                30,
                31,
                32,
                33,
                34,
                35,
                36,
                37,
                38,
                39,
                40,
                41,
                42,
                43,
                44,
                45,
                46,
                47,
                48,
                49,
                50,
                51,
                52,
                53,
                54,
                55,
                56,
                57,
                58,
                59,
                60,
                61,
                62,
                63,
                64,
                65,
                66,
                67,
                68,
                69,
                70
            ]
        }
    ],
    "nodes" : [
        {
            "name" : "Bone_end",
            "rotation" : [
                -2.842170943040401e-14,
                2.842170943040401e-14,
                -1.3754896812150547e-21,
                1
            ],
            "translation" : [
                9.252843824469892e-08,
                1.000000238418579,
                4.973408351816033e-08
            ]
        },
        {
            "children" : [
                0
            ],
            "name" : "Bone",
            "rotation" : [
                1.65143518415789e-07,
                2.7340817609911028e-08,
                4.141399036043398e-15,
                1
            ]
        },
        {
            "name" : "Bone.001_end",
            "translation" : [
                0,
                1.000000238418579,
                2.904585016949568e-09
            ]
        },
        {
            "children" : [
                2
            ],
            "name" : "Bone.001",
            "rotation" : [
                1.7881393432617188e-07,
                0,
                0,
                1
            ],
            "translation" : [
                0,
                2.9802322387695312e-08,
                1.58091402053833
            ]
        },
        {
            "name" : "Bone.002_end",
            "translation" : [
                0,
                1.000000238418579,
                4.6639883066745824e-08
            ]
        },
        {
            "children" : [
                4
            ],
            "name" : "Bone.002",
            "rotation" : [
                1.1920928955078125e-07,
                0,
                0,
                1
            ],
            "translation" : [
                0,
                0,
                2.968881845474243
            ]
        },
        {
            "name" : "Bone.003_end",
            "translation" : [
                0,
                1.000000238418579,
                4.76837158203125e-07
            ]
        },
        {
            "children" : [
                6
            ],
            "name" : "Bone.003",
            "translation" : [
                0,
                0,
                4.562243938446045
            ]
        },
        {
            "children" : [
                1,
                3,
                5,
                7
            ],
            "name" : "BonesR",
            "translation" : [
                -2.7642900943756104,
                0.3043779134750366,
                -1.6921299695968628
            ]
        },
        {
            "mesh" : 0,
            "name" : "TrackR",
            "scale" : [
                10.423699378967285,
                0.06516039371490479,
                0.4779219627380371
            ],
            "translation" : [
                -2.7604100704193115,
                1.7577942609786987,
                0.3782314956188202
            ]
        },
        {
            "name" : "Bone_end",
            "rotation" : [
                -2.842170943040401e-14,
                2.842170943040401e-14,
                -1.3754896812150547e-21,
                1
            ],
            "translation" : [
                9.2528658512947e-08,
                1.000000238418579,
                1.136273510837782e-07
            ]
        },
        {
            "children" : [
                10
            ],
            "name" : "Bone",
            "rotation" : [
                1.65143518415789e-07,
                2.7340817609911028e-08,
                4.141399036043398e-15,
                1
            ]
        },
        {
            "name" : "Bone.001_end",
            "translation" : [
                0,
                1.000000238418579,
                2.904585016949568e-09
            ]
        },
        {
            "children" : [
                12
            ],
            "name" : "Bone.001",
            "rotation" : [
                1.7881393432617188e-07,
                0,
                0,
                1
            ],
            "translation" : [
                0,
                2.9802322387695312e-08,
                1.58091402053833
            ]
        },
        {
            "name" : "Bone.002_end",
            "translation" : [
                0,
                1.000000238418579,
                4.6639883066745824e-08
            ]
        },
        {
            "children" : [
                14
            ],
            "name" : "Bone.002",
            "rotation" : [
                1.1920928955078125e-07,
                0,
                0,
                1
            ],
            "translation" : [
                0,
                0,
                2.968881845474243
            ]
        },
        {
            "name" : "Bone.003_end",
            "translation" : [
                0,
                1.000000238418579,
                0
            ]
        },
        {
            "children" : [
                16
            ],
            "name" : "Bone.003",
            "translation" : [
                0,
                0,
                4.562243938446045
            ]
        },
        {
            "children" : [
                11,
                13,
                15,
                17
            ],
            "name" : "BonesL",
            "translation" : [
                2.7642908096313477,
                0.3043779134750366,
                -1.6921340227127075
            ]
        },
        {
            "mesh" : 1,
            "name" : "Auxiliary",
            "scale" : [
                0.09487771987915039,
                0.09487771987915039,
                0.3099556565284729
            ],
            "translation" : [
                0.7028844952583313,
                5.767436981201172,
                0.955887496471405
            ]
        },
        {
            "name" : "Bone.005_end",
            "rotation" : [
                -1.3234889800848443e-23,
                1.215686151785472e-22,
                5.942578813628715e-23,
                1
            ],
            "translation" : [
                -2.0944268541711608e-08,
                0.3569639325141907,
                -1.5465543867776432e-07
            ]
        },
        {
            "children" : [
                20
            ],
            "name" : "Bone.005",
            "rotation" : [
                1.4210854715202004e-14,
                -1.4210854715202004e-14,
                -4.122799439418919e-21,
                1
            ],
            "translation" : [
                -2.0944224132790623e-08,
                0.3494608998298645,
                1.2515340763741278e-08
            ]
        },
        {
            "children" : [
                21
            ],
            "name" : "Bone.004",
            "rotation" : [
                -1.4210854715202004e-14,
                -1.2702449225798773e-07,
                1.879656264566125e-21,
                1
            ],
            "translation" : [
                3.225504840997928e-08,
                0.3569644093513489,
                5.2301956543487904e-08
            ]
        },
        {
            "children" : [
                22
            ],
            "name" : "Bone.003",
            "rotation" : [
                2.150669592637872e-22,
                1.215686909091941e-22,
                5.81189422280363e-23,
                1
            ],
            "translation" : [
                -8.695422337723357e-08,
                0.3537476658821106,
                1.0026329277934565e-07
            ]
        },
        {
            "children" : [
                23
            ],
            "name" : "Bone.002",
            "rotation" : [
                -7.105427357601002e-15,
                1.2702450646884245e-07,
                7.831573777673915e-22,
                1
            ],
            "translation" : [
                -2.094426676535477e-08,
                0.35160380601882935,
                -8.345979551904747e-08
            ]
        },
        {
            "children" : [
                24
            ],
            "name" : "Bone.001",
            "rotation" : [
                7.105427357601002e-15,
                -1.2702449225798773e-07,
                -7.58578592418818e-22,
                1
            ],
            "translation" : [
                3.22550448572656e-08,
                0.35410529375076294,
                7.582430328056944e-08
            ]
        },
        {
            "children" : [
                25
            ],
            "name" : "Bone",
            "rotation" : [
                6.339203650895797e-08,
                1.1944970879085304e-07,
                8.024563137457377e-15,
                1
            ],
            "translation" : [
                5.960464477539063e-08,
                0.016529083251953125,
                1.1920928955078125e-07
            ]
        },
        {
            "name" : "neutral_bone",
            "rotation" : [
                1,
                5.088690720462098e-16,
                7.574776361707336e-09,
                6.339203650895797e-08
            ]
        },
        {
            "mesh" : 2,
            "name" : "Antenna",
            "skin" : 0
        },
        {
            "children" : [
                28,
                26,
                27
            ],
            "name" : "BonesT",
            "translation" : [
                -0.9666836261749268,
                5.33140230178833,
                -1.3824987411499023
            ]
        },
        {
            "mesh" : 3,
            "name" : "Door",
            "rotation" : [
                0,
                -1,
                0,
                4.371138828673793e-08
            ],
            "scale" : [
                -0.5759626626968384,
                -0.026768922805786133,
                -0.5759626626968384
            ],
            "translation" : [
                0.5405614376068115,
                5.435580253601074,
                0.10048073530197144
            ]
        },
        {
            "mesh" : 4,
            "name" : "Gun",
            "rotation" : [
                0.70710688829422,
                0,
                0,
                0.7071066498756409
            ],
            "scale" : [
                0.2437845766544342,
                2.7885026931762695,
                0.243784561753273
            ],
            "translation" : [
                0,
                4.18434476852417,
                2.259575366973877
            ]
        },
        {
            "mesh" : 5,
            "name" : "WheelBR1",
            "rotation" : [
                -0.70710688829422,
                -0.7071066498756409,
                0,
                5.338508302088485e-08
            ],
            "scale" : [
                -0.4398479759693146,
                -0.4398479759693146,
                -0.4398479759693146
            ],
            "translation" : [
                -2.7996723651885986,
                0.6931458711624146,
                2.8559651374816895
            ]
        },
        {
            "mesh" : 6,
            "name" : "StrBR1",
            "rotation" : [
                -0.70710688829422,
                -0.7071066498756409,
                0,
                5.338508657359853e-08
            ],
            "scale" : [
                -0.19374708831310272,
                -0.48350244760513306,
                -0.19374708831310272
            ],
            "translation" : [
                -2.338951587677002,
                0.693009614944458,
                2.8498637676239014
            ]
        },
        {
            "mesh" : 7,
            "name" : "SuspensionFR",
            "rotation" : [
                -1,
                0,
                0,
                7.549790126404332e-08
            ],
            "scale" : [
                -0.15266624093055725,
                -0.15266624093055725,
                -0.06777191162109375
            ],
            "translation" : [
                -2.135758876800537,
                1.164000391960144,
                2.0533056259155273
            ]
        },
        {
            "mesh" : 8,
            "name" : "WheelMFR",
            "rotation" : [
                -0.70710688829422,
                -0.7071066498756409,
                0,
                5.338508302088485e-08
            ],
            "scale" : [
                -0.8796959519386292,
                -0.4398479759693146,
                -0.8796959519386292
            ],
            "translation" : [
                -2.8003640174865723,
                2.2985291481018066,
                3.8314244747161865
            ]
        },
        {
            "mesh" : 9,
            "name" : "StrMFR",
            "rotation" : [
                -0.70710688829422,
                -0.7071066498756409,
                0,
                5.338508657359853e-08
            ],
            "scale" : [
                -0.38749417662620544,
                -0.48350244760513306,
                -0.38749417662620544
            ],
            "translation" : [
                -2.273554801940918,
                2.2984046936035156,
                3.8347325325012207
            ]
        },
        {
            "mesh" : 10,
            "name" : "StrMBR",
            "rotation" : [
                -0.70710688829422,
                -0.7071066498756409,
                0,
                5.338508657359853e-08
            ],
            "scale" : [
                -0.38749417662620544,
                -0.48350244760513306,
                -0.38749417662620544
            ],
            "translation" : [
                -2.273554801940918,
                1.9938111305236816,
                -3.168595790863037
            ]
        },
        {
            "mesh" : 11,
            "name" : "WheelMBR",
            "rotation" : [
                -0.70710688829422,
                -0.7071066498756409,
                0,
                5.338508302088485e-08
            ],
            "scale" : [
                -0.8796959519386292,
                -0.4398479759693146,
                -0.8796959519386292
            ],
            "translation" : [
                -2.7874128818511963,
                1.9399737119674683,
                -3.1395273208618164
            ]
        },
        {
            "mesh" : 12,
            "name" : "StrBR2",
            "rotation" : [
                -0.70710688829422,
                -0.7071066498756409,
                0,
                5.338508657359853e-08
            ],
            "scale" : [
                -0.19374708831310272,
                -0.48350244760513306,
                -0.19374708831310272
            ],
            "translation" : [
                -2.338951587677002,
                0.693009614944458,
                1.265429973602295
            ]
        },
        {
            "mesh" : 13,
            "name" : "WheelBR2",
            "rotation" : [
                -0.70710688829422,
                -0.7071066498756409,
                0,
                5.338508302088485e-08
            ],
            "scale" : [
                -0.4398479759693146,
                -0.4398479759693146,
                -0.4398479759693146
            ],
            "translation" : [
                -2.7996723651885986,
                0.6931458711624146,
                1.271531581878662
            ]
        },
        {
            "mesh" : 14,
            "name" : "WheelBR4",
            "rotation" : [
                -0.70710688829422,
                -0.7071066498756409,
                0,
                5.338508302088485e-08
            ],
            "scale" : [
                -0.4398479759693146,
                -0.4398479759693146,
                -0.4398479759693146
            ],
            "translation" : [
                -2.7996723651885986,
                0.6931458711624146,
                -1.690661907196045
            ]
        },
        {
            "mesh" : 15,
            "name" : "StrBR4",
            "rotation" : [
                -0.70710688829422,
                -0.7071066498756409,
                0,
                5.338508657359853e-08
            ],
            "scale" : [
                -0.19374708831310272,
                -0.48350244760513306,
                -0.19374708831310272
            ],
            "translation" : [
                -2.338951587677002,
                0.693009614944458,
                -1.6967633962631226
            ]
        },
        {
            "mesh" : 16,
            "name" : "SuspensionBR",
            "rotation" : [
                -1,
                0,
                0,
                7.549790126404332e-08
            ],
            "scale" : [
                -0.15266624093055725,
                -0.15266624093055725,
                -0.06777191162109375
            ],
            "translation" : [
                -2.135758876800537,
                1.164000391960144,
                -0.9088878631591797
            ]
        },
        {
            "mesh" : 17,
            "name" : "WheelBR3",
            "rotation" : [
                -0.70710688829422,
                -0.7071066498756409,
                0,
                5.338508302088485e-08
            ],
            "scale" : [
                -0.4398479759693146,
                -0.4398479759693146,
                -0.4398479759693146
            ],
            "translation" : [
                -2.7996723651885986,
                0.6931458711624146,
                -0.10622808337211609
            ]
        },
        {
            "mesh" : 18,
            "name" : "StrTR1",
            "rotation" : [
                -0.70710688829422,
                -0.7071066498756409,
                0,
                5.338508657359853e-08
            ],
            "scale" : [
                -0.19374708831310272,
                -0.48350244760513306,
                -0.19374708831310272
            ],
            "translation" : [
                -2.2637574672698975,
                2.6715385913848877,
                1.6745147705078125
            ]
        },
        {
            "mesh" : 19,
            "name" : "WheelTR1",
            "rotation" : [
                -0.70710688829422,
                -0.7071066498756409,
                0,
                5.338508302088485e-08
            ],
            "scale" : [
                -0.4398479759693146,
                -0.4398479759693146,
                -0.4398479759693146
            ],
            "translation" : [
                -2.7244787216186523,
                2.6716747283935547,
                1.6806163787841797
            ]
        },
        {
            "mesh" : 20,
            "name" : "WheelTR2",
            "rotation" : [
                -0.70710688829422,
                -0.7071066498756409,
                0,
                5.338508302088485e-08
            ],
            "scale" : [
                -0.4398479759693146,
                -0.4398479759693146,
                -0.4398479759693146
            ],
            "translation" : [
                -2.7244787216186523,
                2.6716747283935547,
                -0.8141229152679443
            ]
        },
        {
            "mesh" : 21,
            "name" : "StrTR2",
            "rotation" : [
                -0.70710688829422,
                -0.7071066498756409,
                0,
                5.338508657359853e-08
            ],
            "scale" : [
                -0.19374708831310272,
                -0.48350244760513306,
                -0.19374708831310272
            ],
            "translation" : [
                -2.2637574672698975,
                2.6715385913848877,
                -0.8202245235443115
            ]
        },
        {
            "mesh" : 22,
            "name" : "StrBR3",
            "rotation" : [
                -0.70710688829422,
                -0.7071066498756409,
                0,
                5.338508657359853e-08
            ],
            "scale" : [
                -0.19374708831310272,
                -0.48350244760513306,
                -0.19374708831310272
            ],
            "translation" : [
                -2.338951587677002,
                0.693009614944458,
                -0.10737225413322449
            ]
        },
        {
            "mesh" : 23,
            "name" : "Turret",
            "scale" : [
                1.9503971338272095,
                1.9503971338272095,
                1.9503971338272095
            ],
            "translation" : [
                0.002243228256702423,
                4.359879016876221,
                -0.3071175515651703
            ]
        },
        {
            "mesh" : 24,
            "name" : "StrBL3",
            "rotation" : [
                0,
                0,
                -0.7071068286895752,
                0.7071067094802856
            ],
            "scale" : [
                0.1937471479177475,
                0.4835025370121002,
                0.1937471181154251
            ],
            "translation" : [
                2.3370816707611084,
                0.693009614944458,
                -0.10737228393554688
            ]
        },
        {
            "mesh" : 25,
            "name" : "TrackL",
            "scale" : [
                10.423727035522461,
                0.06516039371490479,
                0.47792181372642517
            ],
            "translation" : [
                2.7604119777679443,
                1.7577942609786987,
                0.3782314956188202
            ]
        },
        {
            "mesh" : 26,
            "name" : "StrTL2",
            "rotation" : [
                0,
                0,
                -0.7071068286895752,
                0.7071067094802856
            ],
            "scale" : [
                0.1937471479177475,
                0.4835025370121002,
                0.1937471181154251
            ],
            "translation" : [
                2.261887788772583,
                2.6715385913848877,
                -0.8202245235443115
            ]
        },
        {
            "mesh" : 27,
            "name" : "WheelTL2",
            "rotation" : [
                0,
                0,
                -0.7071068286895752,
                0.7071067094802856
            ],
            "scale" : [
                0.43984806537628174,
                0.43984806537628174,
                0.43984800577163696
            ],
            "translation" : [
                2.722608804702759,
                2.6716747283935547,
                -0.8141229152679443
            ]
        },
        {
            "mesh" : 28,
            "name" : "WheelTL1",
            "rotation" : [
                0,
                0,
                -0.7071068286895752,
                0.7071067094802856
            ],
            "scale" : [
                0.43984806537628174,
                0.43984806537628174,
                0.43984800577163696
            ],
            "translation" : [
                2.722608804702759,
                2.6716747283935547,
                1.6806163787841797
            ]
        },
        {
            "mesh" : 29,
            "name" : "StrTL1",
            "rotation" : [
                0,
                0,
                -0.7071068286895752,
                0.7071067094802856
            ],
            "scale" : [
                0.1937471479177475,
                0.4835025370121002,
                0.1937471181154251
            ],
            "translation" : [
                2.261887788772583,
                2.6715385913848877,
                1.6745147705078125
            ]
        },
        {
            "mesh" : 30,
            "name" : "WheelBL3",
            "rotation" : [
                0,
                0,
                -0.7071068286895752,
                0.7071067094802856
            ],
            "scale" : [
                0.43984806537628174,
                0.43984806537628174,
                0.43984800577163696
            ],
            "translation" : [
                2.797802686691284,
                0.6931458711624146,
                -0.10622811317443848
            ]
        },
        {
            "mesh" : 31,
            "name" : "SuspensionBL",
            "scale" : [
                0.15266624093055725,
                0.15266624093055725,
                0.06777191162109375
            ],
            "translation" : [
                2.1338889598846436,
                1.164000391960144,
                -0.9088878631591797
            ]
        },
        {
            "mesh" : 32,
            "name" : "StrBL4",
            "rotation" : [
                0,
                0,
                -0.7071068286895752,
                0.7071067094802856
            ],
            "scale" : [
                0.1937471479177475,
                0.4835025370121002,
                0.1937471181154251
            ],
            "translation" : [
                2.3370816707611084,
                0.693009614944458,
                -1.6967633962631226
            ]
        },
        {
            "mesh" : 33,
            "name" : "WheelBL4",
            "rotation" : [
                0,
                0,
                -0.7071068286895752,
                0.7071067094802856
            ],
            "scale" : [
                0.43984806537628174,
                0.43984806537628174,
                0.43984800577163696
            ],
            "translation" : [
                2.797802686691284,
                0.6931458711624146,
                -1.690661907196045
            ]
        },
        {
            "mesh" : 34,
            "name" : "WheelBL2",
            "rotation" : [
                0,
                0,
                -0.7071068286895752,
                0.7071067094802856
            ],
            "scale" : [
                0.43984806537628174,
                0.43984806537628174,
                0.43984800577163696
            ],
            "translation" : [
                2.797802686691284,
                0.6931458711624146,
                1.271531581878662
            ]
        },
        {
            "mesh" : 35,
            "name" : "StrBL2",
            "rotation" : [
                0,
                0,
                -0.7071068286895752,
                0.7071067094802856
            ],
            "scale" : [
                0.1937471479177475,
                0.4835025370121002,
                0.1937471181154251
            ],
            "translation" : [
                2.3370816707611084,
                0.693009614944458,
                1.265429973602295
            ]
        },
        {
            "mesh" : 36,
            "name" : "WheelMBL",
            "rotation" : [
                0,
                0,
                -0.7071068286895752,
                0.7071067094802856
            ],
            "scale" : [
                0.8796961307525635,
                0.43984806537628174,
                0.8796960115432739
            ],
            "translation" : [
                2.785543203353882,
                1.9399737119674683,
                -3.1395273208618164
            ]
        },
        {
            "mesh" : 37,
            "name" : "StrMBL",
            "rotation" : [
                0,
                0,
                -0.70710688829422,
                0.7071067094802856
            ],
            "scale" : [
                0.3874942660331726,
                0.4835025370121002,
                0.38749420642852783
            ],
            "translation" : [
                2.2716848850250244,
                1.9938111305236816,
                -3.168595790863037
            ]
        },
        {
            "mesh" : 38,
            "name" : "Chassis",
            "scale" : [
                1.9923995733261108,
                1.1858227252960205,
                4.410390853881836
            ],
            "translation" : [
                0,
                2.129714012145996,
                -0.0398990623652935
            ]
        },
        {
            "mesh" : 39,
            "name" : "StrMFL",
            "rotation" : [
                0,
                0,
                -0.70710688829422,
                0.7071067094802856
            ],
            "scale" : [
                0.3874942660331726,
                0.4835025370121002,
                0.38749420642852783
            ],
            "translation" : [
                2.2716848850250244,
                2.2984046936035156,
                3.8347325325012207
            ]
        },
        {
            "mesh" : 40,
            "name" : "WheelMFL",
            "rotation" : [
                0,
                0,
                -0.7071068286895752,
                0.7071067094802856
            ],
            "scale" : [
                0.8796961307525635,
                0.43984806537628174,
                0.8796960115432739
            ],
            "translation" : [
                2.7984938621520996,
                2.2985291481018066,
                3.8314244747161865
            ]
        },
        {
            "mesh" : 41,
            "name" : "SuspensionFL",
            "scale" : [
                0.15266624093055725,
                0.15266624093055725,
                0.06777191162109375
            ],
            "translation" : [
                2.1338889598846436,
                1.164000391960144,
                2.0533056259155273
            ]
        },
        {
            "mesh" : 42,
            "name" : "StrBL1",
            "rotation" : [
                0,
                0,
                -0.7071068286895752,
                0.7071067094802856
            ],
            "scale" : [
                0.1937471479177475,
                0.4835025370121002,
                0.1937471181154251
            ],
            "translation" : [
                2.3370816707611084,
                0.693009614944458,
                2.8498637676239014
            ]
        },
        {
            "mesh" : 43,
            "name" : "WheelBL1",
            "rotation" : [
                0,
                0,
                -0.7071068286895752,
                0.7071067094802856
            ],
            "scale" : [
                0.43984806537628174,
                0.43984806537628174,
                0.43984800577163696
            ],
            "translation" : [
                2.797802686691284,
                0.6931458711624146,
                2.8559651374816895
            ]
        }
    ],
    "meshes" : [
        {
            "name" : "Cube.000",
            "primitives" : [
                {
                    "attributes" : {
                        "POSITION" : 0,
                        "NORMAL" : 1
                    },
                    "indices" : 2
                }
            ]
        },
        {
            "name" : "Cube.009",
            "primitives" : [
                {
                    "attributes" : {
                        "POSITION" : 3,
                        "NORMAL" : 4
                    },
                    "indices" : 5
                }
            ]
        },
        {
            "name" : "Cylinder.035",
            "primitives" : [
                {
                    "attributes" : {
                        "POSITION" : 6,
                        "NORMAL" : 7,
                        "JOINTS_0" : 8,
                        "WEIGHTS_0" : 9
                    },
                    "indices" : 10
                }
            ]
        },
        {
            "name" : "Cylinder.034",
            "primitives" : [
                {
                    "attributes" : {
                        "POSITION" : 12,
                        "NORMAL" : 13
                    },
                    "indices" : 14
                }
            ]
        },
        {
            "name" : "Cylinder.033",
            "primitives" : [
                {
                    "attributes" : {
                        "POSITION" : 15,
                        "NORMAL" : 16
                    },
                    "indices" : 17
                }
            ]
        },
        {
            "name" : "Cylinder.031",
            "primitives" : [
                {
                    "attributes" : {
                        "POSITION" : 18,
                        "NORMAL" : 19
                    },
                    "indices" : 20
                }
            ]
        },
        {
            "name" : "Cylinder.030",
            "primitives" : [
                {
                    "attributes" : {
                        "POSITION" : 21,
                        "NORMAL" : 22
                    },
                    "indices" : 23
                }
            ]
        },
        {
            "name" : "Cube.008",
            "primitives" : [
                {
                    "attributes" : {
                        "POSITION" : 24,
                        "NORMAL" : 25
                    },
                    "indices" : 26
                }
            ]
        },
        {
            "name" : "Cylinder.029",
            "primitives" : [
                {
                    "attributes" : {
                        "POSITION" : 27,
                        "NORMAL" : 28
                    },
                    "indices" : 20
                }
            ]
        },
        {
            "name" : "Cylinder.028",
            "primitives" : [
                {
                    "attributes" : {
                        "POSITION" : 29,
                        "NORMAL" : 30
                    },
                    "indices" : 23
                }
            ]
        },
        {
            "name" : "Cylinder.027",
            "primitives" : [
                {
                    "attributes" : {
                        "POSITION" : 31,
                        "NORMAL" : 32
                    },
                    "indices" : 23
                }
            ]
        },
        {
            "name" : "Cylinder.026",
            "primitives" : [
                {
                    "attributes" : {
                        "POSITION" : 33,
                        "NORMAL" : 34
                    },
                    "indices" : 20
                }
            ]
        },
        {
            "name" : "Cylinder.025",
            "primitives" : [
                {
                    "attributes" : {
                        "POSITION" : 35,
                        "NORMAL" : 36
                    },
                    "indices" : 23
                }
            ]
        },
        {
            "name" : "Cylinder.024",
            "primitives" : [
                {
                    "attributes" : {
                        "POSITION" : 37,
                        "NORMAL" : 38
                    },
                    "indices" : 20
                }
            ]
        },
        {
            "name" : "Cylinder.023",
            "primitives" : [
                {
                    "attributes" : {
                        "POSITION" : 39,
                        "NORMAL" : 40
                    },
                    "indices" : 20
                }
            ]
        },
        {
            "name" : "Cylinder.022",
            "primitives" : [
                {
                    "attributes" : {
                        "POSITION" : 41,
                        "NORMAL" : 42
                    },
                    "indices" : 23
                }
            ]
        },
        {
            "name" : "Cube.007",
            "primitives" : [
                {
                    "attributes" : {
                        "POSITION" : 43,
                        "NORMAL" : 44
                    },
                    "indices" : 26
                }
            ]
        },
        {
            "name" : "Cylinder.021",
            "primitives" : [
                {
                    "attributes" : {
                        "POSITION" : 45,
                        "NORMAL" : 46
                    },
                    "indices" : 20
                }
            ]
        },
        {
            "name" : "Cylinder.020",
            "primitives" : [
                {
                    "attributes" : {
                        "POSITION" : 47,
                        "NORMAL" : 48
                    },
                    "indices" : 23
                }
            ]
        },
        {
            "name" : "Cylinder.019",
            "primitives" : [
                {
                    "attributes" : {
                        "POSITION" : 49,
                        "NORMAL" : 50
                    },
                    "indices" : 20
                }
            ]
        },
        {
            "name" : "Cylinder.018",
            "primitives" : [
                {
                    "attributes" : {
                        "POSITION" : 51,
                        "NORMAL" : 52
                    },
                    "indices" : 20
                }
            ]
        },
        {
            "name" : "Cylinder.017",
            "primitives" : [
                {
                    "attributes" : {
                        "POSITION" : 53,
                        "NORMAL" : 54
                    },
                    "indices" : 23
                }
            ]
        },
        {
            "name" : "Cylinder.016",
            "primitives" : [
                {
                    "attributes" : {
                        "POSITION" : 55,
                        "NORMAL" : 56
                    },
                    "indices" : 23
                }
            ]
        },
        {
            "name" : "Cube.004",
            "primitives" : [
                {
                    "attributes" : {
                        "POSITION" : 57,
                        "NORMAL" : 58
                    },
                    "indices" : 59
                }
            ]
        },
        {
            "name" : "Cylinder.015",
            "primitives" : [
                {
                    "attributes" : {
                        "POSITION" : 60,
                        "NORMAL" : 61
                    },
                    "indices" : 23
                }
            ]
        },
        {
            "extras" : {
                "targetNames" : [
                    "Armature"
                ]
            },
            "name" : "Cube.005",
            "primitives" : [
                {
                    "attributes" : {
                        "POSITION" : 62,
                        "NORMAL" : 63
                    },
                    "indices" : 64,
                    "targets" : [
                        {
                            "POSITION" : 65,
                            "NORMAL" : 66
                        }
                    ]
                }
            ],
            "weights" : [
                0
            ]
        },
        {
            "name" : "Cylinder.014",
            "primitives" : [
                {
                    "attributes" : {
                        "POSITION" : 67,
                        "NORMAL" : 68
                    },
                    "indices" : 23
                }
            ]
        },
        {
            "name" : "Cylinder.013",
            "primitives" : [
                {
                    "attributes" : {
                        "POSITION" : 69,
                        "NORMAL" : 70
                    },
                    "indices" : 20
                }
            ]
        },
        {
            "name" : "Cylinder.012",
            "primitives" : [
                {
                    "attributes" : {
                        "POSITION" : 71,
                        "NORMAL" : 72
                    },
                    "indices" : 20
                }
            ]
        },
        {
            "name" : "Cylinder.011",
            "primitives" : [
                {
                    "attributes" : {
                        "POSITION" : 73,
                        "NORMAL" : 74
                    },
                    "indices" : 23
                }
            ]
        },
        {
            "name" : "Cylinder.010",
            "primitives" : [
                {
                    "attributes" : {
                        "POSITION" : 75,
                        "NORMAL" : 76
                    },
                    "indices" : 20
                }
            ]
        },
        {
            "name" : "Cube.003",
            "primitives" : [
                {
                    "attributes" : {
                        "POSITION" : 77,
                        "NORMAL" : 78
                    },
                    "indices" : 26
                }
            ]
        },
        {
            "name" : "Cylinder.009",
            "primitives" : [
                {
                    "attributes" : {
                        "POSITION" : 79,
                        "NORMAL" : 80
                    },
                    "indices" : 23
                }
            ]
        },
        {
            "name" : "Cylinder.008",
            "primitives" : [
                {
                    "attributes" : {
                        "POSITION" : 81,
                        "NORMAL" : 82
                    },
                    "indices" : 20
                }
            ]
        },
        {
            "name" : "Cylinder.007",
            "primitives" : [
                {
                    "attributes" : {
                        "POSITION" : 83,
                        "NORMAL" : 84
                    },
                    "indices" : 20
                }
            ]
        },
        {
            "name" : "Cylinder.006",
            "primitives" : [
                {
                    "attributes" : {
                        "POSITION" : 85,
                        "NORMAL" : 86
                    },
                    "indices" : 23
                }
            ]
        },
        {
            "name" : "Cylinder.005",
            "primitives" : [
                {
                    "attributes" : {
                        "POSITION" : 87,
                        "NORMAL" : 88
                    },
                    "indices" : 20
                }
            ]
        },
        {
            "name" : "Cylinder.004",
            "primitives" : [
                {
                    "attributes" : {
                        "POSITION" : 89,
                        "NORMAL" : 90
                    },
                    "indices" : 23
                }
            ]
        },
        {
            "name" : "Cube.002",
            "primitives" : [
                {
                    "attributes" : {
                        "POSITION" : 91,
                        "NORMAL" : 92
                    },
                    "indices" : 93
                }
            ]
        },
        {
            "name" : "Cylinder.003",
            "primitives" : [
                {
                    "attributes" : {
                        "POSITION" : 94,
                        "NORMAL" : 95
                    },
                    "indices" : 23
                }
            ]
        },
        {
            "name" : "Cylinder.002",
            "primitives" : [
                {
                    "attributes" : {
                        "POSITION" : 96,
                        "NORMAL" : 97
                    },
                    "indices" : 20
                }
            ]
        },
        {
            "name" : "Cube.006",
            "primitives" : [
                {
                    "attributes" : {
                        "POSITION" : 98,
                        "NORMAL" : 99
                    },
                    "indices" : 26
                }
            ]
        },
        {
            "name" : "Cylinder.001",
            "primitives" : [
                {
                    "attributes" : {
                        "POSITION" : 100,
                        "NORMAL" : 101
                    },
                    "indices" : 23
                }
            ]
        },
        {
            "name" : "Cylinder",
            "primitives" : [
                {
                    "attributes" : {
                        "POSITION" : 102,
                        "NORMAL" : 103
                    },
                    "indices" : 20
                }
            ]
        }
    ],
    "skins" : [
        {
            "inverseBindMatrices" : 11,
            "joints" : [
                26,
                25,
                24,
                23,
                22,
                21,
                20,
                27
            ],
            "name" : "BonesT"
        },
        {
            "inverseBindMatrices" : 104,
            "joints" : [
                1,
                0,
                3,
                2,
                5,
                4,
                7,
                6
            ],
            "name" : "BonesR"
        },
        {
            "inverseBindMatrices" : 105,
            "joints" : [
                11,
                10,
                13,
                12,
                15,
                14,
                17,
                16
            ],
            "name" : "BonesL"
        }
    ],
    "accessors" : [
        {
            "bufferView" : 0,
            "componentType" : 5126,
            "count" : 667,
            "max" : [
                0.04584924876689911,
                23.84256362915039,
                9.271227836608887
            ],
            "min" : [
                -0.04584960639476776,
                -25.186986923217773,
                -9.482933044433594
            ],
            "type" : "VEC3"
        },
        {
            "bufferView" : 1,
            "componentType" : 5126,
            "count" : 667,
            "type" : "VEC3"
        },
        {
            "bufferView" : 2,
            "componentType" : 5123,
            "count" : 744,
            "type" : "SCALAR"
        },
        {
            "bufferView" : 3,
            "componentType" : 5126,
            "count" : 60,
            "max" : [
                1,
                1.3761402368545532,
                3.2956676483154297
            ],
            "min" : [
                -1,
                -1,
                -1.2716481685638428
            ],
            "type" : "VEC3"
        },
        {
            "bufferView" : 4,
            "componentType" : 5126,
            "count" : 60,
            "type" : "VEC3"
        },
        {
            "bufferView" : 5,
            "componentType" : 5123,
            "count" : 312,
            "type" : "SCALAR"
        },
        {
            "bufferView" : 6,
            "componentType" : 5126,
            "count" : 224,
            "max" : [
                -0.9505261182785034,
                7.476644039154053,
                -1.3660914897918701
            ],
            "min" : [
                -0.9839228987693787,
                5.329689025878906,
                -1.3994883298873901
            ],
            "type" : "VEC3"
        },
        {
            "bufferView" : 7,
            "componentType" : 5126,
            "count" : 224,
            "type" : "VEC3"
        },
        {
            "bufferView" : 8,
            "componentType" : 5121,
            "count" : 224,
            "type" : "VEC4"
        },
        {
            "bufferView" : 9,
            "componentType" : 5126,
            "count" : 224,
            "type" : "VEC4"
        },
        {
            "bufferView" : 10,
            "componentType" : 5123,
            "count" : 1332,
            "type" : "SCALAR"
        },
        {
            "bufferView" : 11,
            "componentType" : 5126,
            "count" : 8,
            "type" : "MAT4"
        },
        {
            "bufferView" : 12,
            "componentType" : 5126,
            "count" : 80,
            "max" : [
                1.031813621520996,
                2.965784788131714,
                0.9968667030334473
            ],
            "min" : [
                -1.0963367223739624,
                -1.0306702852249146,
                -1.0031332969665527
            ],
            "type" : "VEC3"
        },
        {
            "bufferView" : 13,
            "componentType" : 5126,
            "count" : 80,
            "type" : "VEC3"
        },
        {
            "bufferView" : 14,
            "componentType" : 5123,
            "count" : 468,
            "type" : "SCALAR"
        },
        {
            "bufferView" : 15,
            "componentType" : 5126,
            "count" : 512,
            "max" : [
                4.387575149536133,
                1.889580488204956,
                1.857040524482727
            ],
            "min" : [
                -4.387576103210449,
                -0.49164217710494995,
                -1.8480457067489624
            ],
            "type" : "VEC3"
        },
        {
            "bufferView" : 16,
            "componentType" : 5126,
            "count" : 512,
            "type" : "VEC3"
        },
        {
            "bufferView" : 17,
            "componentType" : 5123,
            "count" : 2970,
            "type" : "SCALAR"
        },
        {
            "bufferView" : 18,
            "componentType" : 5126,
            "count" : 256,
            "max" : [
                1,
                1,
                1
            ],
            "min" : [
                -1,
                -1,
                -1
            ],
            "type" : "VEC3"
        },
        {
            "bufferView" : 19,
            "componentType" : 5126,
            "count" : 256,
            "type" : "VEC3"
        },
        {
            "bufferView" : 20,
            "componentType" : 5123,
            "count" : 1422,
            "type" : "SCALAR"
        },
        {
            "bufferView" : 21,
            "componentType" : 5126,
            "count" : 128,
            "max" : [
                1.3825935125350952,
                1,
                1.3825932741165161
            ],
            "min" : [
                -1.382593035697937,
                -0.6122279167175293,
                -1.382593035697937
            ],
            "type" : "VEC3"
        },
        {
            "bufferView" : 22,
            "componentType" : 5126,
            "count" : 128,
            "type" : "VEC3"
        },
        {
            "bufferView" : 23,
            "componentType" : 5123,
            "count" : 756,
            "type" : "SCALAR"
        },
        {
            "bufferView" : 24,
            "componentType" : 5126,
            "count" : 98,
            "max" : [
                1,
                3.393876314163208,
                13.552522659301758
            ],
            "min" : [
                -1,
                -3.571589231491089,
                -13.552522659301758
            ],
            "type" : "VEC3"
        },
        {
            "bufferView" : 25,
            "componentType" : 5126,
            "count" : 98,
            "type" : "VEC3"
        },
        {
            "bufferView" : 26,
            "componentType" : 5123,
            "count" : 180,
            "type" : "SCALAR"
        },
        {
            "bufferView" : 27,
            "componentType" : 5126,
            "count" : 256,
            "max" : [
                1,
                1,
                1
            ],
            "min" : [
                -1,
                -1,
                -1
            ],
            "type" : "VEC3"
        },
        {
            "bufferView" : 28,
            "componentType" : 5126,
            "count" : 256,
            "type" : "VEC3"
        },
        {
            "bufferView" : 29,
            "componentType" : 5126,
            "count" : 128,
            "max" : [
                1.3825935125350952,
                1,
                1.3825932741165161
            ],
            "min" : [
                -1.382593035697937,
                -0.6122279167175293,
                -1.382593035697937
            ],
            "type" : "VEC3"
        },
        {
            "bufferView" : 30,
            "componentType" : 5126,
            "count" : 128,
            "type" : "VEC3"
        },
        {
            "bufferView" : 31,
            "componentType" : 5126,
            "count" : 128,
            "max" : [
                1.3825935125350952,
                1,
                1.3825932741165161
            ],
            "min" : [
                -1.382593035697937,
                -0.6122279167175293,
                -1.382593035697937
            ],
            "type" : "VEC3"
        },
        {
            "bufferView" : 32,
            "componentType" : 5126,
            "count" : 128,
            "type" : "VEC3"
        },
        {
            "bufferView" : 33,
            "componentType" : 5126,
            "count" : 256,
            "max" : [
                1,
                1,
                1
            ],
            "min" : [
                -1,
                -1,
                -1
            ],
            "type" : "VEC3"
        },
        {
            "bufferView" : 34,
            "componentType" : 5126,
            "count" : 256,
            "type" : "VEC3"
        },
        {
            "bufferView" : 35,
            "componentType" : 5126,
            "count" : 128,
            "max" : [
                1.3825935125350952,
                1,
                1.3825932741165161
            ],
            "min" : [
                -1.382593035697937,
                -0.6122279167175293,
                -1.382593035697937
            ],
            "type" : "VEC3"
        },
        {
            "bufferView" : 36,
            "componentType" : 5126,
            "count" : 128,
            "type" : "VEC3"
        },
        {
            "bufferView" : 37,
            "componentType" : 5126,
            "count" : 256,
            "max" : [
                1,
                1,
                1
            ],
            "min" : [
                -1,
                -1,
                -1
            ],
            "type" : "VEC3"
        },
        {
            "bufferView" : 38,
            "componentType" : 5126,
            "count" : 256,
            "type" : "VEC3"
        },
        {
            "bufferView" : 39,
            "componentType" : 5126,
            "count" : 256,
            "max" : [
                1,
                1,
                1
            ],
            "min" : [
                -1,
                -1,
                -1
            ],
            "type" : "VEC3"
        },
        {
            "bufferView" : 40,
            "componentType" : 5126,
            "count" : 256,
            "type" : "VEC3"
        },
        {
            "bufferView" : 41,
            "componentType" : 5126,
            "count" : 128,
            "max" : [
                1.3825935125350952,
                1,
                1.3825932741165161
            ],
            "min" : [
                -1.382593035697937,
                -0.6122279167175293,
                -1.382593035697937
            ],
            "type" : "VEC3"
        },
        {
            "bufferView" : 42,
            "componentType" : 5126,
            "count" : 128,
            "type" : "VEC3"
        },
        {
            "bufferView" : 43,
            "componentType" : 5126,
            "count" : 98,
            "max" : [
                1,
                3.393876314163208,
                13.552522659301758
            ],
            "min" : [
                -1,
                -3.571589231491089,
                -13.552522659301758
            ],
            "type" : "VEC3"
        },
        {
            "bufferView" : 44,
            "componentType" : 5126,
            "count" : 98,
            "type" : "VEC3"
        },
        {
            "bufferView" : 45,
            "componentType" : 5126,
            "count" : 256,
            "max" : [
                1,
                1,
                1
            ],
            "min" : [
                -1,
                -1,
                -1
            ],
            "type" : "VEC3"
        },
        {
            "bufferView" : 46,
            "componentType" : 5126,
            "count" : 256,
            "type" : "VEC3"
        },
        {
            "bufferView" : 47,
            "componentType" : 5126,
            "count" : 128,
            "max" : [
                1.3825935125350952,
                1,
                1.3825932741165161
            ],
            "min" : [
                -1.382593035697937,
                -0.6122279167175293,
                -1.382593035697937
            ],
            "type" : "VEC3"
        },
        {
            "bufferView" : 48,
            "componentType" : 5126,
            "count" : 128,
            "type" : "VEC3"
        },
        {
            "bufferView" : 49,
            "componentType" : 5126,
            "count" : 256,
            "max" : [
                1,
                1,
                1
            ],
            "min" : [
                -1,
                -1,
                -1
            ],
            "type" : "VEC3"
        },
        {
            "bufferView" : 50,
            "componentType" : 5126,
            "count" : 256,
            "type" : "VEC3"
        },
        {
            "bufferView" : 51,
            "componentType" : 5126,
            "count" : 256,
            "max" : [
                1,
                1,
                1
            ],
            "min" : [
                -1,
                -1,
                -1
            ],
            "type" : "VEC3"
        },
        {
            "bufferView" : 52,
            "componentType" : 5126,
            "count" : 256,
            "type" : "VEC3"
        },
        {
            "bufferView" : 53,
            "componentType" : 5126,
            "count" : 128,
            "max" : [
                1.3825935125350952,
                1,
                1.3825932741165161
            ],
            "min" : [
                -1.382593035697937,
                -0.6122279167175293,
                -1.382593035697937
            ],
            "type" : "VEC3"
        },
        {
            "bufferView" : 54,
            "componentType" : 5126,
            "count" : 128,
            "type" : "VEC3"
        },
        {
            "bufferView" : 55,
            "componentType" : 5126,
            "count" : 128,
            "max" : [
                1.3825935125350952,
                1,
                1.3825932741165161
            ],
            "min" : [
                -1.382593035697937,
                -0.6122279167175293,
                -1.382593035697937
            ],
            "type" : "VEC3"
        },
        {
            "bufferView" : 56,
            "componentType" : 5126,
            "count" : 128,
            "type" : "VEC3"
        },
        {
            "bufferView" : 57,
            "componentType" : 5126,
            "count" : 1752,
            "max" : [
                0.9988498687744141,
                0.6730003356933594,
                1.3074896335601807
            ],
            "min" : [
                -1.001150131225586,
                -0.40413355827331543,
                -1.2791328430175781
            ],
            "type" : "VEC3"
        },
        {
            "bufferView" : 58,
            "componentType" : 5126,
            "count" : 1752,
            "type" : "VEC3"
        },
        {
            "bufferView" : 59,
            "componentType" : 5123,
            "count" : 2076,
            "type" : "SCALAR"
        },
        {
            "bufferView" : 60,
            "componentType" : 5126,
            "count" : 128,
            "max" : [
                1.3825935125350952,
                1,
                1.3825932741165161
            ],
            "min" : [
                -1.382593035697937,
                -0.6122279167175293,
                -1.382593035697937
            ],
            "type" : "VEC3"
        },
        {
            "bufferView" : 61,
            "componentType" : 5126,
            "count" : 128,
            "type" : "VEC3"
        },
        {
            "bufferView" : 62,
            "componentType" : 5126,
            "count" : 668,
            "max" : [
                0.04584924876689911,
                23.84256362915039,
                9.271227836608887
            ],
            "min" : [
                -0.04584960639476776,
                -25.186986923217773,
                -9.482933044433594
            ],
            "type" : "VEC3"
        },
        {
            "bufferView" : 63,
            "componentType" : 5126,
            "count" : 668,
            "type" : "VEC3"
        },
        {
            "bufferView" : 64,
            "componentType" : 5123,
            "count" : 744,
            "type" : "SCALAR"
        },
        {
            "bufferView" : 65,
            "componentType" : 5126,
            "count" : 668,
            "max" : [
                0,
                0,
                0
            ],
            "min" : [
                -3.725290298461914e-09,
                -7.62939453125e-06,
                0
            ],
            "type" : "VEC3"
        },
        {
            "bufferView" : 66,
            "componentType" : 5126,
            "count" : 668,
            "type" : "VEC3"
        },
        {
            "bufferView" : 67,
            "componentType" : 5126,
            "count" : 128,
            "max" : [
                1.3825935125350952,
                1,
                1.3825932741165161
            ],
            "min" : [
                -1.382593035697937,
                -0.6122279167175293,
                -1.382593035697937
            ],
            "type" : "VEC3"
        },
        {
            "bufferView" : 68,
            "componentType" : 5126,
            "count" : 128,
            "type" : "VEC3"
        },
        {
            "bufferView" : 69,
            "componentType" : 5126,
            "count" : 256,
            "max" : [
                1,
                1,
                1
            ],
            "min" : [
                -1,
                -1,
                -1
            ],
            "type" : "VEC3"
        },
        {
            "bufferView" : 70,
            "componentType" : 5126,
            "count" : 256,
            "type" : "VEC3"
        },
        {
            "bufferView" : 71,
            "componentType" : 5126,
            "count" : 256,
            "max" : [
                1,
                1,
                1
            ],
            "min" : [
                -1,
                -1,
                -1
            ],
            "type" : "VEC3"
        },
        {
            "bufferView" : 72,
            "componentType" : 5126,
            "count" : 256,
            "type" : "VEC3"
        },
        {
            "bufferView" : 73,
            "componentType" : 5126,
            "count" : 128,
            "max" : [
                1.3825935125350952,
                1,
                1.3825932741165161
            ],
            "min" : [
                -1.382593035697937,
                -0.6122279167175293,
                -1.382593035697937
            ],
            "type" : "VEC3"
        },
        {
            "bufferView" : 74,
            "componentType" : 5126,
            "count" : 128,
            "type" : "VEC3"
        },
        {
            "bufferView" : 75,
            "componentType" : 5126,
            "count" : 256,
            "max" : [
                1,
                1,
                1
            ],
            "min" : [
                -1,
                -1,
                -1
            ],
            "type" : "VEC3"
        },
        {
            "bufferView" : 76,
            "componentType" : 5126,
            "count" : 256,
            "type" : "VEC3"
        },
        {
            "bufferView" : 77,
            "componentType" : 5126,
            "count" : 98,
            "max" : [
                1,
                3.393876314163208,
                13.552522659301758
            ],
            "min" : [
                -1,
                -3.571589231491089,
                -13.552522659301758
            ],
            "type" : "VEC3"
        },
        {
            "bufferView" : 78,
            "componentType" : 5126,
            "count" : 98,
            "type" : "VEC3"
        },
        {
            "bufferView" : 79,
            "componentType" : 5126,
            "count" : 128,
            "max" : [
                1.3825935125350952,
                1,
                1.3825932741165161
            ],
            "min" : [
                -1.382593035697937,
                -0.6122279167175293,
                -1.382593035697937
            ],
            "type" : "VEC3"
        },
        {
            "bufferView" : 80,
            "componentType" : 5126,
            "count" : 128,
            "type" : "VEC3"
        },
        {
            "bufferView" : 81,
            "componentType" : 5126,
            "count" : 256,
            "max" : [
                1,
                1,
                1
            ],
            "min" : [
                -1,
                -1,
                -1
            ],
            "type" : "VEC3"
        },
        {
            "bufferView" : 82,
            "componentType" : 5126,
            "count" : 256,
            "type" : "VEC3"
        },
        {
            "bufferView" : 83,
            "componentType" : 5126,
            "count" : 256,
            "max" : [
                1,
                1,
                1
            ],
            "min" : [
                -1,
                -1,
                -1
            ],
            "type" : "VEC3"
        },
        {
            "bufferView" : 84,
            "componentType" : 5126,
            "count" : 256,
            "type" : "VEC3"
        },
        {
            "bufferView" : 85,
            "componentType" : 5126,
            "count" : 128,
            "max" : [
                1.3825935125350952,
                1,
                1.3825932741165161
            ],
            "min" : [
                -1.382593035697937,
                -0.6122279167175293,
                -1.382593035697937
            ],
            "type" : "VEC3"
        },
        {
            "bufferView" : 86,
            "componentType" : 5126,
            "count" : 128,
            "type" : "VEC3"
        },
        {
            "bufferView" : 87,
            "componentType" : 5126,
            "count" : 256,
            "max" : [
                1,
                1,
                1
            ],
            "min" : [
                -1,
                -1,
                -1
            ],
            "type" : "VEC3"
        },
        {
            "bufferView" : 88,
            "componentType" : 5126,
            "count" : 256,
            "type" : "VEC3"
        },
        {
            "bufferView" : 89,
            "componentType" : 5126,
            "count" : 128,
            "max" : [
                1.3825935125350952,
                1,
                1.3825932741165161
            ],
            "min" : [
                -1.382593035697937,
                -0.6122279167175293,
                -1.382593035697937
            ],
            "type" : "VEC3"
        },
        {
            "bufferView" : 90,
            "componentType" : 5126,
            "count" : 128,
            "type" : "VEC3"
        },
        {
            "bufferView" : 91,
            "componentType" : 5126,
            "count" : 1509,
            "max" : [
                1,
                1.2657561302185059,
                1.0090465545654297
            ],
            "min" : [
                -1,
                -1.2142423391342163,
                -1.083912968635559
            ],
            "type" : "VEC3"
        },
        {
            "bufferView" : 92,
            "componentType" : 5126,
            "count" : 1509,
            "type" : "VEC3"
        },
        {
            "bufferView" : 93,
            "componentType" : 5123,
            "count" : 1680,
            "type" : "SCALAR"
        },
        {
            "bufferView" : 94,
            "componentType" : 5126,
            "count" : 128,
            "max" : [
                1.3825935125350952,
                1,
                1.3825932741165161
            ],
            "min" : [
                -1.382593035697937,
                -0.6122279167175293,
                -1.382593035697937
            ],
            "type" : "VEC3"
        },
        {
            "bufferView" : 95,
            "componentType" : 5126,
            "count" : 128,
            "type" : "VEC3"
        },
        {
            "bufferView" : 96,
            "componentType" : 5126,
            "count" : 256,
            "max" : [
                1,
                1,
                1
            ],
            "min" : [
                -1,
                -1,
                -1
            ],
            "type" : "VEC3"
        },
        {
            "bufferView" : 97,
            "componentType" : 5126,
            "count" : 256,
            "type" : "VEC3"
        },
        {
            "bufferView" : 98,
            "componentType" : 5126,
            "count" : 98,
            "max" : [
                1,
                3.393876314163208,
                13.552522659301758
            ],
            "min" : [
                -1,
                -3.571589231491089,
                -13.552522659301758
            ],
            "type" : "VEC3"
        },
        {
            "bufferView" : 99,
            "componentType" : 5126,
            "count" : 98,
            "type" : "VEC3"
        },
        {
            "bufferView" : 100,
            "componentType" : 5126,
            "count" : 128,
            "max" : [
                1.3825935125350952,
                1,
                1.3825932741165161
            ],
            "min" : [
                -1.382593035697937,
                -0.6122279167175293,
                -1.382593035697937
            ],
            "type" : "VEC3"
        },
        {
            "bufferView" : 101,
            "componentType" : 5126,
            "count" : 128,
            "type" : "VEC3"
        },
        {
            "bufferView" : 102,
            "componentType" : 5126,
            "count" : 256,
            "max" : [
                1,
                1,
                1
            ],
            "min" : [
                -1,
                -1,
                -1
            ],
            "type" : "VEC3"
        },
        {
            "bufferView" : 103,
            "componentType" : 5126,
            "count" : 256,
            "type" : "VEC3"
        },
        {
            "bufferView" : 104,
            "componentType" : 5126,
            "count" : 8,
            "type" : "MAT4"
        },
        {
            "bufferView" : 105,
            "componentType" : 5126,
            "count" : 8,
            "type" : "MAT4"
        }
    ],
    "bufferViews" : [
        {
            "buffer" : 0,
            "byteLength" : 8004,
            "byteOffset" : 0,
            "target" : 34962
        },
        {
            "buffer" : 0,
            "byteLength" : 8004,
            "byteOffset" : 8004,
            "target" : 34962
        },
        {
            "buffer" : 0,
            "byteLength" : 1488,
            "byteOffset" : 16008,
            "target" : 34963
        },
        {
            "buffer" : 0,
            "byteLength" : 720,
            "byteOffset" : 17496,
            "target" : 34962
        },
        {
            "buffer" : 0,
            "byteLength" : 720,
            "byteOffset" : 18216,
            "target" : 34962
        },
        {
            "buffer" : 0,
            "byteLength" : 624,
            "byteOffset" : 18936,
            "target" : 34963
        },
        {
            "buffer" : 0,
            "byteLength" : 2688,
            "byteOffset" : 19560,
            "target" : 34962
        },
        {
            "buffer" : 0,
            "byteLength" : 2688,
            "byteOffset" : 22248,
            "target" : 34962
        },
        {
            "buffer" : 0,
            "byteLength" : 896,
            "byteOffset" : 24936,
            "target" : 34962
        },
        {
            "buffer" : 0,
            "byteLength" : 3584,
            "byteOffset" : 25832,
            "target" : 34962
        },
        {
            "buffer" : 0,
            "byteLength" : 2664,
            "byteOffset" : 29416,
            "target" : 34963
        },
        {
            "buffer" : 0,
            "byteLength" : 512,
            "byteOffset" : 32080
        },
        {
            "buffer" : 0,
            "byteLength" : 960,
            "byteOffset" : 32592,
            "target" : 34962
        },
        {
            "buffer" : 0,
            "byteLength" : 960,
            "byteOffset" : 33552,
            "target" : 34962
        },
        {
            "buffer" : 0,
            "byteLength" : 936,
            "byteOffset" : 34512,
            "target" : 34963
        },
        {
            "buffer" : 0,
            "byteLength" : 6144,
            "byteOffset" : 35448,
            "target" : 34962
        },
        {
            "buffer" : 0,
            "byteLength" : 6144,
            "byteOffset" : 41592,
            "target" : 34962
        },
        {
            "buffer" : 0,
            "byteLength" : 5940,
            "byteOffset" : 47736,
            "target" : 34963
        },
        {
            "buffer" : 0,
            "byteLength" : 3072,
            "byteOffset" : 53676,
            "target" : 34962
        },
        {
            "buffer" : 0,
            "byteLength" : 3072,
            "byteOffset" : 56748,
            "target" : 34962
        },
        {
            "buffer" : 0,
            "byteLength" : 2844,
            "byteOffset" : 59820,
            "target" : 34963
        },
        {
            "buffer" : 0,
            "byteLength" : 1536,
            "byteOffset" : 62664,
            "target" : 34962
        },
        {
            "buffer" : 0,
            "byteLength" : 1536,
            "byteOffset" : 64200,
            "target" : 34962
        },
        {
            "buffer" : 0,
            "byteLength" : 1512,
            "byteOffset" : 65736,
            "target" : 34963
        },
        {
            "buffer" : 0,
            "byteLength" : 1176,
            "byteOffset" : 67248,
            "target" : 34962
        },
        {
            "buffer" : 0,
            "byteLength" : 1176,
            "byteOffset" : 68424,
            "target" : 34962
        },
        {
            "buffer" : 0,
            "byteLength" : 360,
            "byteOffset" : 69600,
            "target" : 34963
        },
        {
            "buffer" : 0,
            "byteLength" : 3072,
            "byteOffset" : 69960,
            "target" : 34962
        },
        {
            "buffer" : 0,
            "byteLength" : 3072,
            "byteOffset" : 73032,
            "target" : 34962
        },
        {
            "buffer" : 0,
            "byteLength" : 1536,
            "byteOffset" : 76104,
            "target" : 34962
        },
        {
            "buffer" : 0,
            "byteLength" : 1536,
            "byteOffset" : 77640,
            "target" : 34962
        },
        {
            "buffer" : 0,
            "byteLength" : 1536,
            "byteOffset" : 79176,
            "target" : 34962
        },
        {
            "buffer" : 0,
            "byteLength" : 1536,
            "byteOffset" : 80712,
            "target" : 34962
        },
        {
            "buffer" : 0,
            "byteLength" : 3072,
            "byteOffset" : 82248,
            "target" : 34962
        },
        {
            "buffer" : 0,
            "byteLength" : 3072,
            "byteOffset" : 85320,
            "target" : 34962
        },
        {
            "buffer" : 0,
            "byteLength" : 1536,
            "byteOffset" : 88392,
            "target" : 34962
        },
        {
            "buffer" : 0,
            "byteLength" : 1536,
            "byteOffset" : 89928,
            "target" : 34962
        },
        {
            "buffer" : 0,
            "byteLength" : 3072,
            "byteOffset" : 91464,
            "target" : 34962
        },
        {
            "buffer" : 0,
            "byteLength" : 3072,
            "byteOffset" : 94536,
            "target" : 34962
        },
        {
            "buffer" : 0,
            "byteLength" : 3072,
            "byteOffset" : 97608,
            "target" : 34962
        },
        {
            "buffer" : 0,
            "byteLength" : 3072,
            "byteOffset" : 100680,
            "target" : 34962
        },
        {
            "buffer" : 0,
            "byteLength" : 1536,
            "byteOffset" : 103752,
            "target" : 34962
        },
        {
            "buffer" : 0,
            "byteLength" : 1536,
            "byteOffset" : 105288,
            "target" : 34962
        },
        {
            "buffer" : 0,
            "byteLength" : 1176,
            "byteOffset" : 106824,
            "target" : 34962
        },
        {
            "buffer" : 0,
            "byteLength" : 1176,
            "byteOffset" : 108000,
            "target" : 34962
        },
        {
            "buffer" : 0,
            "byteLength" : 3072,
            "byteOffset" : 109176,
            "target" : 34962
        },
        {
            "buffer" : 0,
            "byteLength" : 3072,
            "byteOffset" : 112248,
            "target" : 34962
        },
        {
            "buffer" : 0,
            "byteLength" : 1536,
            "byteOffset" : 115320,
            "target" : 34962
        },
        {
            "buffer" : 0,
            "byteLength" : 1536,
            "byteOffset" : 116856,
            "target" : 34962
        },
        {
            "buffer" : 0,
            "byteLength" : 3072,
            "byteOffset" : 118392,
            "target" : 34962
        },
        {
            "buffer" : 0,
            "byteLength" : 3072,
            "byteOffset" : 121464,
            "target" : 34962
        },
        {
            "buffer" : 0,
            "byteLength" : 3072,
            "byteOffset" : 124536,
            "target" : 34962
        },
        {
            "buffer" : 0,
            "byteLength" : 3072,
            "byteOffset" : 127608,
            "target" : 34962
        },
        {
            "buffer" : 0,
            "byteLength" : 1536,
            "byteOffset" : 130680,
            "target" : 34962
        },
        {
            "buffer" : 0,
            "byteLength" : 1536,
            "byteOffset" : 132216,
            "target" : 34962
        },
        {
            "buffer" : 0,
            "byteLength" : 1536,
            "byteOffset" : 133752,
            "target" : 34962
        },
        {
            "buffer" : 0,
            "byteLength" : 1536,
            "byteOffset" : 135288,
            "target" : 34962
        },
        {
            "buffer" : 0,
            "byteLength" : 21024,
            "byteOffset" : 136824,
            "target" : 34962
        },
        {
            "buffer" : 0,
            "byteLength" : 21024,
            "byteOffset" : 157848,
            "target" : 34962
        },
        {
            "buffer" : 0,
            "byteLength" : 4152,
            "byteOffset" : 178872,
            "target" : 34963
        },
        {
            "buffer" : 0,
            "byteLength" : 1536,
            "byteOffset" : 183024,
            "target" : 34962
        },
        {
            "buffer" : 0,
            "byteLength" : 1536,
            "byteOffset" : 184560,
            "target" : 34962
        },
        {
            "buffer" : 0,
            "byteLength" : 8016,
            "byteOffset" : 186096,
            "target" : 34962
        },
        {
            "buffer" : 0,
            "byteLength" : 8016,
            "byteOffset" : 194112,
            "target" : 34962
        },
        {
            "buffer" : 0,
            "byteLength" : 1488,
            "byteOffset" : 202128,
            "target" : 34963
        },
        {
            "buffer" : 0,
            "byteLength" : 8016,
            "byteOffset" : 203616,
            "target" : 34962
        },
        {
            "buffer" : 0,
            "byteLength" : 8016,
            "byteOffset" : 211632,
            "target" : 34962
        },
        {
            "buffer" : 0,
            "byteLength" : 1536,
            "byteOffset" : 219648,
            "target" : 34962
        },
        {
            "buffer" : 0,
            "byteLength" : 1536,
            "byteOffset" : 221184,
            "target" : 34962
        },
        {
            "buffer" : 0,
            "byteLength" : 3072,
            "byteOffset" : 222720,
            "target" : 34962
        },
        {
            "buffer" : 0,
            "byteLength" : 3072,
            "byteOffset" : 225792,
            "target" : 34962
        },
        {
            "buffer" : 0,
            "byteLength" : 3072,
            "byteOffset" : 228864,
            "target" : 34962
        },
        {
            "buffer" : 0,
            "byteLength" : 3072,
            "byteOffset" : 231936,
            "target" : 34962
        },
        {
            "buffer" : 0,
            "byteLength" : 1536,
            "byteOffset" : 235008,
            "target" : 34962
        },
        {
            "buffer" : 0,
            "byteLength" : 1536,
            "byteOffset" : 236544,
            "target" : 34962
        },
        {
            "buffer" : 0,
            "byteLength" : 3072,
            "byteOffset" : 238080,
            "target" : 34962
        },
        {
            "buffer" : 0,
            "byteLength" : 3072,
            "byteOffset" : 241152,
            "target" : 34962
        },
        {
            "buffer" : 0,
            "byteLength" : 1176,
            "byteOffset" : 244224,
            "target" : 34962
        },
        {
            "buffer" : 0,
            "byteLength" : 1176,
            "byteOffset" : 245400,
            "target" : 34962
        },
        {
            "buffer" : 0,
            "byteLength" : 1536,
            "byteOffset" : 246576,
            "target" : 34962
        },
        {
            "buffer" : 0,
            "byteLength" : 1536,
            "byteOffset" : 248112,
            "target" : 34962
        },
        {
            "buffer" : 0,
            "byteLength" : 3072,
            "byteOffset" : 249648,
            "target" : 34962
        },
        {
            "buffer" : 0,
            "byteLength" : 3072,
            "byteOffset" : 252720,
            "target" : 34962
        },
        {
            "buffer" : 0,
            "byteLength" : 3072,
            "byteOffset" : 255792,
            "target" : 34962
        },
        {
            "buffer" : 0,
            "byteLength" : 3072,
            "byteOffset" : 258864,
            "target" : 34962
        },
        {
            "buffer" : 0,
            "byteLength" : 1536,
            "byteOffset" : 261936,
            "target" : 34962
        },
        {
            "buffer" : 0,
            "byteLength" : 1536,
            "byteOffset" : 263472,
            "target" : 34962
        },
        {
            "buffer" : 0,
            "byteLength" : 3072,
            "byteOffset" : 265008,
            "target" : 34962
        },
        {
            "buffer" : 0,
            "byteLength" : 3072,
            "byteOffset" : 268080,
            "target" : 34962
        },
        {
            "buffer" : 0,
            "byteLength" : 1536,
            "byteOffset" : 271152,
            "target" : 34962
        },
        {
            "buffer" : 0,
            "byteLength" : 1536,
            "byteOffset" : 272688,
            "target" : 34962
        },
        {
            "buffer" : 0,
            "byteLength" : 18108,
            "byteOffset" : 274224,
            "target" : 34962
        },
        {
            "buffer" : 0,
            "byteLength" : 18108,
            "byteOffset" : 292332,
            "target" : 34962
        },
        {
            "buffer" : 0,
            "byteLength" : 3360,
            "byteOffset" : 310440,
            "target" : 34963
        },
        {
            "buffer" : 0,
            "byteLength" : 1536,
            "byteOffset" : 313800,
            "target" : 34962
        },
        {
            "buffer" : 0,
            "byteLength" : 1536,
            "byteOffset" : 315336,
            "target" : 34962
        },
        {
            "buffer" : 0,
            "byteLength" : 3072,
            "byteOffset" : 316872,
            "target" : 34962
        },
        {
            "buffer" : 0,
            "byteLength" : 3072,
            "byteOffset" : 319944,
            "target" : 34962
        },
        {
            "buffer" : 0,
            "byteLength" : 1176,
            "byteOffset" : 323016,
            "target" : 34962
        },
        {
            "buffer" : 0,
            "byteLength" : 1176,
            "byteOffset" : 324192,
            "target" : 34962
        },
        {
            "buffer" : 0,
            "byteLength" : 1536,
            "byteOffset" : 325368,
            "target" : 34962
        },
        {
            "buffer" : 0,
            "byteLength" : 1536,
            "byteOffset" : 326904,
            "target" : 34962
        },
        {
            "buffer" : 0,
            "byteLength" : 3072,
            "byteOffset" : 328440,
            "target" : 34962
        },
        {
            "buffer" : 0,
            "byteLength" : 3072,
            "byteOffset" : 331512,
            "target" : 34962
        },
        {
            "buffer" : 0,
            "byteLength" : 512,
            "byteOffset" : 334584
        },
        {
            "buffer" : 0,
            "byteLength" : 512,
            "byteOffset" : 335096
        }
    ],
    "buffers" : [
        {
            "byteLength" : 335608,
            "uri" : "data:application/octet-stream;base64,"
        }
    ]
}
